STARTFONT 2.1
FONT -FontForge-04b19-Book-R-Normal--14-100-100-100-P-75-ISO10646-1
SIZE 10 100 100
FONTBOUNDINGBOX 11 14 0 -2
COMMENT "Generated by fontforge, http://fontforge.sourceforge.net"
COMMENT "1999-2003 / yuji oshimoo / 04@dsg4.com / www.04.jp.org"
STARTPROPERTIES 39
FOUNDRY "FontForge"
FAMILY_NAME "04b19"
WEIGHT_NAME "Book"
SLANT "R"
SETWIDTH_NAME "Normal"
ADD_STYLE_NAME ""
PIXEL_SIZE 14
POINT_SIZE 100
RESOLUTION_X 100
RESOLUTION_Y 100
SPACING "P"
AVERAGE_WIDTH 75
CHARSET_REGISTRY "ISO10646"
CHARSET_ENCODING "1"
FONTNAME_REGISTRY ""
CHARSET_COLLECTIONS "ISO10646-1"
FONT_NAME "04b19"
FACE_NAME "04b19"
COPYRIGHT "1999-2003 / yuji oshimoo / 04@dsg4.com / www.04.jp.org"
FONT_VERSION "Macromedia Fonographer 4.1J 03.3.25"
FONT_ASCENT 12
FONT_DESCENT 2
UNDERLINE_POSITION -2
UNDERLINE_THICKNESS 1
X_HEIGHT 9
CAP_HEIGHT 10
RAW_ASCENT 857
RAW_DESCENT 142
NORM_SPACE 6
RELATIVE_WEIGHT 40
RELATIVE_SETWIDTH 50
SUPERSCRIPT_X 0
SUPERSCRIPT_Y 6
SUPERSCRIPT_SIZE 9
SUBSCRIPT_X 0
SUBSCRIPT_Y 2
SUBSCRIPT_SIZE 9
AVG_LOWERCASE_WIDTH 80
AVG_UPPERCASE_WIDTH 80
ENDPROPERTIES
CHARS 100
STARTCHAR space
ENCODING 32
SWIDTH 428 0
DWIDTH 6 0
BBX 1 1 0 0
BITMAP
00
ENDCHAR
STARTCHAR exclam
ENCODING 33
SWIDTH 285 0
DWIDTH 4 0
BBX 3 11 0 0
BITMAP
E0
E0
E0
E0
E0
E0
E0
00
E0
E0
E0
ENDCHAR
STARTCHAR quotedbl
ENCODING 34
SWIDTH 571 0
DWIDTH 8 0
BBX 7 4 0 7
BITMAP
EE
EE
EE
EE
ENDCHAR
STARTCHAR numbersign
ENCODING 35
SWIDTH 857 0
DWIDTH 12 0
BBX 11 11 0 0
BITMAP
3B80
3B80
FFE0
FFE0
FFE0
3B80
FFE0
FFE0
FFE0
3B80
3B80
ENDCHAR
STARTCHAR dollar
ENCODING 36
SWIDTH 785 0
DWIDTH 11 0
BBX 10 13 0 -1
BITMAP
0E00
FFC0
FFC0
FFC0
EE00
FFC0
FFC0
FFC0
1DC0
FFC0
FFC0
FFC0
1C00
ENDCHAR
STARTCHAR percent
ENCODING 37
SWIDTH 571 0
DWIDTH 8 0
BBX 7 11 0 0
BITMAP
EE
EE
EE
0E
FE
FE
FE
E0
EE
EE
EE
ENDCHAR
STARTCHAR ampersand
ENCODING 38
SWIDTH 785 0
DWIDTH 11 0
BBX 10 11 0 0
BITMAP
FE00
FE00
FE00
EE00
FE00
7DC0
FFC0
EFC0
FF00
FE00
FE00
ENDCHAR
STARTCHAR quotesingle
ENCODING 39
SWIDTH 285 0
DWIDTH 4 0
BBX 3 4 0 7
BITMAP
E0
E0
E0
E0
ENDCHAR
STARTCHAR parenleft
ENCODING 40
SWIDTH 428 0
DWIDTH 6 0
BBX 5 11 0 0
BITMAP
38
38
F8
E0
E0
E0
E0
E0
F8
38
38
ENDCHAR
STARTCHAR parenright
ENCODING 41
SWIDTH 428 0
DWIDTH 6 0
BBX 5 11 0 0
BITMAP
E0
E0
F8
38
38
38
38
38
F8
E0
E0
ENDCHAR
STARTCHAR asterisk
ENCODING 42
SWIDTH 571 0
DWIDTH 8 0
BBX 7 7 0 4
BITMAP
EE
EE
FE
38
FE
EE
EE
ENDCHAR
STARTCHAR plus
ENCODING 43
SWIDTH 714 0
DWIDTH 10 0
BBX 9 9 0 1
BITMAP
1C00
1C00
1C00
FF80
FF80
FF80
1C00
1C00
1C00
ENDCHAR
STARTCHAR comma
ENCODING 44
SWIDTH 285 0
DWIDTH 4 0
BBX 3 5 0 -2
BITMAP
E0
E0
E0
E0
E0
ENDCHAR
STARTCHAR hyphen
ENCODING 45
SWIDTH 571 0
DWIDTH 8 0
BBX 7 3 0 4
BITMAP
FE
FE
FE
ENDCHAR
STARTCHAR period
ENCODING 46
SWIDTH 285 0
DWIDTH 4 0
BBX 3 3 0 0
BITMAP
E0
E0
E0
ENDCHAR
STARTCHAR slash
ENCODING 47
SWIDTH 500 0
DWIDTH 7 0
BBX 6 12 0 -1
BITMAP
1C
1C
1C
38
38
38
70
70
70
E0
E0
E0
ENDCHAR
STARTCHAR zero
ENCODING 48
SWIDTH 571 0
DWIDTH 8 0
BBX 7 11 0 0
BITMAP
FE
FE
FE
EE
EE
EE
EE
EE
FE
FE
FE
ENDCHAR
STARTCHAR one
ENCODING 49
SWIDTH 357 0
DWIDTH 5 0
BBX 4 11 0 0
BITMAP
F0
F0
F0
70
70
70
70
70
70
70
70
ENDCHAR
STARTCHAR two
ENCODING 50
SWIDTH 571 0
DWIDTH 8 0
BBX 7 11 0 0
BITMAP
FE
FE
FE
0E
FE
FE
FE
E0
FE
FE
FE
ENDCHAR
STARTCHAR three
ENCODING 51
SWIDTH 571 0
DWIDTH 8 0
BBX 7 11 0 0
BITMAP
FE
FE
FE
0E
FE
FE
FE
0E
FE
FE
FE
ENDCHAR
STARTCHAR four
ENCODING 52
SWIDTH 571 0
DWIDTH 8 0
BBX 7 11 0 0
BITMAP
EE
EE
EE
EE
EE
EE
FE
FE
FE
0E
0E
ENDCHAR
STARTCHAR five
ENCODING 53
SWIDTH 571 0
DWIDTH 8 0
BBX 7 11 0 0
BITMAP
FE
FE
FE
E0
FE
FE
FE
0E
FE
FE
FE
ENDCHAR
STARTCHAR six
ENCODING 54
SWIDTH 571 0
DWIDTH 8 0
BBX 7 11 0 0
BITMAP
FE
FE
FE
E0
FE
FE
FE
EE
FE
FE
FE
ENDCHAR
STARTCHAR seven
ENCODING 55
SWIDTH 571 0
DWIDTH 8 0
BBX 7 11 0 0
BITMAP
FE
FE
FE
EE
EE
EE
0E
0E
0E
0E
0E
ENDCHAR
STARTCHAR eight
ENCODING 56
SWIDTH 571 0
DWIDTH 8 0
BBX 7 11 0 0
BITMAP
FE
FE
FE
EE
FE
FE
FE
EE
FE
FE
FE
ENDCHAR
STARTCHAR nine
ENCODING 57
SWIDTH 571 0
DWIDTH 8 0
BBX 7 11 0 0
BITMAP
FE
FE
FE
EE
FE
FE
FE
0E
FE
FE
FE
ENDCHAR
STARTCHAR colon
ENCODING 58
SWIDTH 285 0
DWIDTH 4 0
BBX 3 7 0 2
BITMAP
E0
E0
E0
00
E0
E0
E0
ENDCHAR
STARTCHAR semicolon
ENCODING 59
SWIDTH 285 0
DWIDTH 4 0
BBX 3 9 0 0
BITMAP
E0
E0
E0
00
E0
E0
E0
E0
E0
ENDCHAR
STARTCHAR less
ENCODING 60
SWIDTH 571 0
DWIDTH 8 0
BBX 7 11 0 0
BITMAP
0E
0E
38
38
F8
E0
F8
38
38
0E
0E
ENDCHAR
STARTCHAR equal
ENCODING 61
SWIDTH 571 0
DWIDTH 8 0
BBX 7 7 0 2
BITMAP
FE
FE
FE
00
FE
FE
FE
ENDCHAR
STARTCHAR greater
ENCODING 62
SWIDTH 571 0
DWIDTH 8 0
BBX 7 11 0 0
BITMAP
E0
E0
38
38
3E
0E
3E
38
38
E0
E0
ENDCHAR
STARTCHAR question
ENCODING 63
SWIDTH 571 0
DWIDTH 8 0
BBX 7 11 0 0
BITMAP
FE
FE
FE
0E
FE
FE
FE
00
E0
E0
E0
ENDCHAR
STARTCHAR at
ENCODING 64
SWIDTH 857 0
DWIDTH 12 0
BBX 11 11 0 0
BITMAP
FFE0
FFE0
FFE0
E0E0
EFE0
EFE0
EFE0
EEE0
FFE0
FFE0
FFE0
ENDCHAR
STARTCHAR A
ENCODING 65
SWIDTH 571 0
DWIDTH 8 0
BBX 7 11 0 0
BITMAP
FE
FE
FE
EE
FE
FE
FE
EE
EE
EE
EE
ENDCHAR
STARTCHAR B
ENCODING 66
SWIDTH 571 0
DWIDTH 8 0
BBX 7 11 0 0
BITMAP
FE
FE
FE
EE
FE
FC
FE
EE
FE
FE
FE
ENDCHAR
STARTCHAR C
ENCODING 67
SWIDTH 571 0
DWIDTH 8 0
BBX 7 11 0 0
BITMAP
FE
FE
EE
EE
EE
E0
EE
EE
EE
FE
FE
ENDCHAR
STARTCHAR D
ENCODING 68
SWIDTH 571 0
DWIDTH 8 0
BBX 7 11 0 0
BITMAP
FC
FE
FE
EE
EE
EE
EE
EE
FE
FE
FC
ENDCHAR
STARTCHAR E
ENCODING 69
SWIDTH 571 0
DWIDTH 8 0
BBX 7 11 0 0
BITMAP
FE
FE
FE
E0
FE
FE
FE
E0
FE
FE
FE
ENDCHAR
STARTCHAR F
ENCODING 70
SWIDTH 571 0
DWIDTH 8 0
BBX 7 11 0 0
BITMAP
FE
FE
FE
E0
FE
FE
FE
E0
E0
E0
E0
ENDCHAR
STARTCHAR G
ENCODING 71
SWIDTH 571 0
DWIDTH 8 0
BBX 7 11 0 0
BITMAP
FE
FE
FE
E0
EE
EE
EE
EE
FE
FE
FE
ENDCHAR
STARTCHAR H
ENCODING 72
SWIDTH 571 0
DWIDTH 8 0
BBX 7 11 0 0
BITMAP
EE
EE
EE
EE
FE
FE
FE
EE
EE
EE
EE
ENDCHAR
STARTCHAR I
ENCODING 73
SWIDTH 285 0
DWIDTH 4 0
BBX 3 11 0 0
BITMAP
E0
E0
E0
E0
E0
E0
E0
E0
E0
E0
E0
ENDCHAR
STARTCHAR J
ENCODING 74
SWIDTH 571 0
DWIDTH 8 0
BBX 7 11 0 0
BITMAP
0E
0E
0E
0E
EE
EE
EE
EE
FE
FE
FE
ENDCHAR
STARTCHAR K
ENCODING 75
SWIDTH 571 0
DWIDTH 8 0
BBX 7 11 0 0
BITMAP
EE
EE
EE
FE
FE
FC
FE
FE
EE
EE
EE
ENDCHAR
STARTCHAR L
ENCODING 76
SWIDTH 428 0
DWIDTH 6 0
BBX 5 11 0 0
BITMAP
E0
E0
E0
E0
E0
E0
E0
E0
F8
F8
F8
ENDCHAR
STARTCHAR M
ENCODING 77
SWIDTH 857 0
DWIDTH 12 0
BBX 11 11 0 0
BITMAP
FFE0
FFE0
FFE0
EEE0
EEE0
EEE0
EEE0
EEE0
EEE0
EEE0
EEE0
ENDCHAR
STARTCHAR N
ENCODING 78
SWIDTH 571 0
DWIDTH 8 0
BBX 7 11 0 0
BITMAP
FE
FE
FE
EE
EE
EE
EE
EE
EE
EE
EE
ENDCHAR
STARTCHAR O
ENCODING 79
SWIDTH 571 0
DWIDTH 8 0
BBX 7 11 0 0
BITMAP
FE
FE
FE
EE
EE
EE
EE
EE
FE
FE
FE
ENDCHAR
STARTCHAR P
ENCODING 80
SWIDTH 571 0
DWIDTH 8 0
BBX 7 11 0 0
BITMAP
FE
FE
FE
EE
EE
EE
FE
FE
FE
E0
E0
ENDCHAR
STARTCHAR Q
ENCODING 81
SWIDTH 571 0
DWIDTH 8 0
BBX 7 12 0 -1
BITMAP
FE
FE
FE
EE
EE
EE
EE
EE
FE
FE
FE
38
ENDCHAR
STARTCHAR R
ENCODING 82
SWIDTH 571 0
DWIDTH 8 0
BBX 7 11 0 0
BITMAP
FE
FE
FE
EE
EE
EE
FE
FC
FE
FE
EE
ENDCHAR
STARTCHAR S
ENCODING 83
SWIDTH 571 0
DWIDTH 8 0
BBX 7 11 0 0
BITMAP
FE
FE
FE
E0
FE
FE
FE
0E
FE
FE
FE
ENDCHAR
STARTCHAR T
ENCODING 84
SWIDTH 571 0
DWIDTH 8 0
BBX 7 11 0 0
BITMAP
FE
FE
FE
38
38
38
38
38
38
38
38
ENDCHAR
STARTCHAR U
ENCODING 85
SWIDTH 571 0
DWIDTH 8 0
BBX 7 11 0 0
BITMAP
EE
EE
EE
EE
EE
EE
EE
EE
FE
FE
FE
ENDCHAR
STARTCHAR V
ENCODING 86
SWIDTH 571 0
DWIDTH 8 0
BBX 7 11 0 0
BITMAP
EE
EE
EE
EE
EE
EE
EE
EE
FE
FE
7C
ENDCHAR
STARTCHAR W
ENCODING 87
SWIDTH 857 0
DWIDTH 12 0
BBX 11 11 0 0
BITMAP
EEE0
EEE0
EEE0
EEE0
EEE0
EEE0
EEE0
EEE0
FFE0
FFE0
FFE0
ENDCHAR
STARTCHAR X
ENCODING 88
SWIDTH 571 0
DWIDTH 8 0
BBX 7 11 0 0
BITMAP
EE
EE
EE
FE
FE
7C
FE
FE
EE
EE
EE
ENDCHAR
STARTCHAR Y
ENCODING 89
SWIDTH 571 0
DWIDTH 8 0
BBX 7 11 0 0
BITMAP
EE
EE
EE
EE
FE
FE
FE
38
38
38
38
ENDCHAR
STARTCHAR Z
ENCODING 90
SWIDTH 571 0
DWIDTH 8 0
BBX 7 11 0 0
BITMAP
FE
FE
FE
0E
FE
FE
FE
E0
FE
FE
FE
ENDCHAR
STARTCHAR bracketleft
ENCODING 91
SWIDTH 357 0
DWIDTH 5 0
BBX 4 11 0 0
BITMAP
F0
F0
F0
E0
E0
E0
E0
E0
F0
F0
F0
ENDCHAR
STARTCHAR backslash
ENCODING 92
SWIDTH 500 0
DWIDTH 7 0
BBX 6 12 0 -1
BITMAP
E0
E0
E0
70
70
70
38
38
38
1C
1C
1C
ENDCHAR
STARTCHAR bracketright
ENCODING 93
SWIDTH 357 0
DWIDTH 5 0
BBX 4 11 0 0
BITMAP
F0
F0
F0
70
70
70
70
70
F0
F0
F0
ENDCHAR
STARTCHAR asciicircum
ENCODING 94
SWIDTH 571 0
DWIDTH 8 0
BBX 7 5 0 6
BITMAP
38
38
FE
EE
EE
ENDCHAR
STARTCHAR underscore
ENCODING 95
SWIDTH 571 0
DWIDTH 8 0
BBX 7 3 0 0
BITMAP
FE
FE
FE
ENDCHAR
STARTCHAR grave
ENCODING 96
SWIDTH 428 0
DWIDTH 6 0
BBX 5 3 0 8
BITMAP
F8
F8
F8
ENDCHAR
STARTCHAR a
ENCODING 97
SWIDTH 571 0
DWIDTH 8 0
BBX 7 11 0 0
BITMAP
7E
7E
7E
0E
FE
FE
FE
EE
FE
FE
FE
ENDCHAR
STARTCHAR b
ENCODING 98
SWIDTH 571 0
DWIDTH 8 0
BBX 7 11 0 0
BITMAP
E0
E0
FE
FE
FE
EE
EE
EE
FE
FE
FE
ENDCHAR
STARTCHAR c
ENCODING 99
SWIDTH 571 0
DWIDTH 8 0
BBX 7 10 0 0
BITMAP
FE
FE
FE
EE
E0
EE
FE
FE
FE
FE
ENDCHAR
STARTCHAR d
ENCODING 100
SWIDTH 571 0
DWIDTH 8 0
BBX 7 11 0 0
BITMAP
0E
0E
FE
FE
FE
EE
EE
EE
FE
FE
FE
ENDCHAR
STARTCHAR e
ENCODING 101
SWIDTH 571 0
DWIDTH 8 0
BBX 7 11 0 0
BITMAP
FE
FE
FE
EE
FE
FE
FE
E0
FE
FE
FE
ENDCHAR
STARTCHAR f
ENCODING 102
SWIDTH 571 0
DWIDTH 8 0
BBX 7 11 0 0
BITMAP
7E
7E
7E
70
FE
FE
FE
1C
FC
FC
FC
ENDCHAR
STARTCHAR g
ENCODING 103
SWIDTH 571 0
DWIDTH 8 0
BBX 7 11 0 -2
BITMAP
FE
FE
FE
EE
FE
FE
FE
0E
FE
FE
FE
ENDCHAR
STARTCHAR h
ENCODING 104
SWIDTH 571 0
DWIDTH 8 0
BBX 7 11 0 0
BITMAP
E0
E0
FE
FE
FE
EE
EE
EE
EE
EE
EE
ENDCHAR
STARTCHAR i
ENCODING 105
SWIDTH 285 0
DWIDTH 4 0
BBX 3 11 0 0
BITMAP
E0
E0
E0
00
E0
E0
E0
E0
E0
E0
E0
ENDCHAR
STARTCHAR j
ENCODING 106
SWIDTH 571 0
DWIDTH 8 0
BBX 7 11 0 0
BITMAP
0E
0E
0E
00
EE
EE
EE
EE
FE
FE
FE
ENDCHAR
STARTCHAR k
ENCODING 107
SWIDTH 571 0
DWIDTH 8 0
BBX 7 11 0 0
BITMAP
E0
E0
EE
EE
FE
FE
FC
FE
FE
EE
EE
ENDCHAR
STARTCHAR l
ENCODING 108
SWIDTH 285 0
DWIDTH 4 0
BBX 3 11 0 0
BITMAP
E0
E0
E0
E0
E0
E0
E0
E0
E0
E0
E0
ENDCHAR
STARTCHAR m
ENCODING 109
SWIDTH 857 0
DWIDTH 12 0
BBX 11 10 0 0
BITMAP
FFE0
FFE0
FFE0
EEE0
EEE0
EEE0
EEE0
EEE0
EEE0
EEE0
ENDCHAR
STARTCHAR n
ENCODING 110
SWIDTH 571 0
DWIDTH 8 0
BBX 7 10 0 0
BITMAP
FE
FE
FE
EE
EE
EE
EE
EE
EE
EE
ENDCHAR
STARTCHAR o
ENCODING 111
SWIDTH 571 0
DWIDTH 8 0
BBX 7 10 0 0
BITMAP
FE
FE
FE
EE
EE
EE
FE
FE
FE
FE
ENDCHAR
STARTCHAR p
ENCODING 112
SWIDTH 571 0
DWIDTH 8 0
BBX 7 11 0 -2
BITMAP
FE
FE
FE
EE
EE
EE
FE
FE
FE
E0
E0
ENDCHAR
STARTCHAR q
ENCODING 113
SWIDTH 571 0
DWIDTH 8 0
BBX 7 11 0 -2
BITMAP
FE
FE
FE
EE
EE
EE
FE
FE
FE
0E
0E
ENDCHAR
STARTCHAR r
ENCODING 114
SWIDTH 571 0
DWIDTH 8 0
BBX 7 10 0 0
BITMAP
FE
FE
FE
EE
EE
E0
E0
E0
E0
E0
ENDCHAR
STARTCHAR s
ENCODING 115
SWIDTH 571 0
DWIDTH 8 0
BBX 7 11 0 0
BITMAP
FE
FE
FE
E0
FE
FE
FE
0E
FE
FE
FE
ENDCHAR
STARTCHAR t
ENCODING 116
SWIDTH 571 0
DWIDTH 8 0
BBX 7 11 0 0
BITMAP
E0
E0
FE
FE
FE
E0
EE
EE
FE
FE
FE
ENDCHAR
STARTCHAR u
ENCODING 117
SWIDTH 571 0
DWIDTH 8 0
BBX 7 10 0 0
BITMAP
EE
EE
EE
EE
EE
EE
EE
FE
FE
FE
ENDCHAR
STARTCHAR v
ENCODING 118
SWIDTH 571 0
DWIDTH 8 0
BBX 7 10 0 0
BITMAP
EE
EE
EE
EE
EE
EE
EE
FE
FE
7C
ENDCHAR
STARTCHAR w
ENCODING 119
SWIDTH 857 0
DWIDTH 12 0
BBX 11 10 0 0
BITMAP
EEE0
EEE0
EEE0
EEE0
EEE0
EEE0
EEE0
FFE0
FFE0
FFE0
ENDCHAR
STARTCHAR x
ENCODING 120
SWIDTH 571 0
DWIDTH 8 0
BBX 7 10 0 0
BITMAP
EE
EE
FE
FE
7C
FE
FE
EE
EE
EE
ENDCHAR
STARTCHAR y
ENCODING 121
SWIDTH 571 0
DWIDTH 8 0
BBX 7 11 0 -2
BITMAP
EE
EE
EE
EE
FE
FE
FE
0E
7E
7E
7E
ENDCHAR
STARTCHAR z
ENCODING 122
SWIDTH 571 0
DWIDTH 8 0
BBX 7 11 0 0
BITMAP
FE
FE
FE
0E
FE
FE
FE
E0
FE
FE
FE
ENDCHAR
STARTCHAR braceleft
ENCODING 123
SWIDTH 428 0
DWIDTH 6 0
BBX 5 11 0 0
BITMAP
78
78
78
70
F0
F0
F0
70
78
78
78
ENDCHAR
STARTCHAR bar
ENCODING 124
SWIDTH 285 0
DWIDTH 4 0
BBX 3 11 0 0
BITMAP
E0
E0
E0
E0
E0
E0
E0
E0
E0
E0
E0
ENDCHAR
STARTCHAR braceright
ENCODING 125
SWIDTH 428 0
DWIDTH 6 0
BBX 5 11 0 0
BITMAP
F0
F0
F0
70
78
78
78
70
F0
F0
F0
ENDCHAR
STARTCHAR asciitilde
ENCODING 126
SWIDTH 428 0
DWIDTH 6 0
BBX 5 3 0 8
BITMAP
F8
F8
F8
ENDCHAR
STARTCHAR nonbreakingspace
ENCODING 160
SWIDTH 428 0
DWIDTH 6 0
BBX 1 1 0 0
BITMAP
00
ENDCHAR
STARTCHAR hyphen.dup1
ENCODING 8208
SWIDTH 571 0
DWIDTH 8 0
BBX 7 3 0 4
BITMAP
FE
FE
FE
ENDCHAR
STARTCHAR .notdef
ENCODING -1
SWIDTH 500 0
DWIDTH 7 0
BBX 5 12 1 0
BITMAP
F8
88
88
88
88
88
88
88
88
88
88
F8
ENDCHAR
STARTCHAR .null
ENCODING -1
SWIDTH 0 0
DWIDTH 0 0
BBX 1 1 0 0
BITMAP
00
ENDCHAR
STARTCHAR nonmarkingreturn
ENCODING -1
SWIDTH 428 0
DWIDTH 6 0
BBX 1 1 0 0
BITMAP
00
ENDCHAR
ENDFONT
